<?xml version="1.0" standalone="no"?>
<!DOCTYPE svg PUBLIC "-//W3C//DTD SVG 20010904//EN"
 "http://www.w3.org/TR/2001/REC-SVG-20010904/DTD/svg10.dtd">
<svg version="1.0" xmlns="http://www.w3.org/2000/svg"
 width="1072.000000pt" height="1072.000000pt" viewBox="0 0 1072.000000 1072.000000"
 preserveAspectRatio="xMidYMid meet">
<metadata>
Created by potrace 1.11, written by Peter Selinger 2001-2013
</metadata>
<g transform="translate(0.000000,1072.000000) scale(0.100000,-0.100000)"
fill="#000000" stroke="none">
<path d="M5128 9945 c-2 -1 -33 -6 -70 -9 -37 -4 -77 -9 -90 -11 -13 -2 -45
-6 -73 -10 -27 -3 -72 -10 -100 -15 -27 -5 -61 -11 -75 -14 -14 -2 -56 -12
-95 -21 -38 -10 -77 -18 -85 -19 -9 -1 -20 -5 -26 -9 -6 -3 -26 -9 -44 -12
-18 -3 -41 -10 -51 -15 -10 -6 -27 -10 -38 -10 -12 0 -21 -5 -21 -12 0 -6 -3
-9 -6 -5 -13 13 -340 -118 -471 -189 -35 -18 -63 -30 -63 -26 0 4 -4 2 -8 -4
-8 -12 -68 -45 -78 -43 -4 0 -10 -3 -13 -8 -3 -5 -32 -25 -64 -44 -105 -61
-145 -87 -165 -106 -7 -7 -19 -13 -27 -13 -7 0 -15 -4 -17 -8 -1 -4 -34 -30
-71 -56 -38 -27 -78 -57 -90 -67 -12 -10 -42 -35 -67 -55 -107 -87 -163 -137
-300 -274 -152 -152 -208 -214 -327 -362 -47 -59 -70 -96 -66 -107 28 -81 205
-418 227 -433 6 -4 8 -8 3 -8 -6 0 33 -61 122 -185 19 -27 38 -52 42 -55 3 -3
10 -12 15 -21 35 -64 270 -313 408 -434 38 -33 74 -65 80 -70 6 -6 45 -35 86
-65 41 -30 77 -57 80 -60 3 -3 46 -31 95 -63 50 -31 95 -60 100 -64 28 -22
240 -130 360 -183 104 -47 314 -121 335 -119 3 1 23 -6 45 -15 22 -8 51 -18
65 -20 14 -3 40 -9 59 -15 18 -6 36 -10 40 -9 3 1 13 -1 21 -5 8 -3 33 -8 55
-12 22 -3 65 -10 95 -15 80 -14 197 -28 285 -35 69 -6 371 -6 420 -1 22 3 75
8 117 11 42 4 83 8 90 9 40 8 87 16 120 21 21 3 59 10 85 16 27 6 57 13 68 15
41 8 61 13 95 24 19 6 46 13 60 16 14 3 41 10 60 16 19 7 37 12 40 13 3 0 11
4 18 8 6 5 12 6 12 2 0 -3 10 0 23 7 12 7 24 13 27 13 12 2 86 28 95 34 6 3
13 6 18 7 4 1 9 3 12 4 3 1 8 3 13 5 30 8 285 132 360 175 70 39 209 128 244
154 15 12 48 37 75 56 26 19 56 41 65 50 9 8 23 20 30 25 73 54 312 283 368
351 156 190 230 288 230 303 0 5 4 11 8 13 7 2 69 98 119 183 7 11 46 90 88
175 42 85 80 163 85 172 10 17 4 48 -9 48 -4 0 -14 12 -23 28 -9 15 -27 39
-40 53 -13 15 -41 48 -63 74 -22 26 -58 69 -80 94 -57 67 -311 318 -374 371
-29 25 -63 53 -75 64 -11 10 -37 30 -56 45 -19 14 -37 28 -40 32 -23 26 -370
259 -386 259 -4 0 -15 6 -23 14 -9 7 -68 40 -131 72 -63 33 -118 63 -121 67
-3 5 -9 8 -13 6 -4 -1 -33 10 -64 24 -122 55 -338 135 -407 152 -5 1 -17 5
-25 8 -8 4 -26 9 -40 11 -14 3 -50 12 -82 20 -31 8 -67 17 -80 20 -12 2 -34 7
-48 10 -36 8 -79 16 -125 22 -22 3 -51 7 -65 10 -14 2 -47 7 -75 10 -27 3 -66
7 -85 11 -36 5 -526 13 -532 8z"/>
<path d="M1214 8985 c-34 -7 -90 -27 -125 -45 -61 -30 -155 -99 -172 -127 -4
-7 -19 -24 -33 -38 -13 -13 -24 -28 -24 -32 0 -5 -6 -15 -13 -24 -19 -21 -65
-144 -73 -194 -33 -187 39 -400 175 -520 19 -16 39 -34 45 -40 6 -5 23 -16 37
-23 26 -14 60 -41 111 -88 15 -13 50 -66 79 -116 93 -162 185 -270 324 -380
84 -66 183 -135 247 -172 41 -24 46 -30 38 -49 -10 -27 -21 -61 -21 -64 1 -2
-6 -20 -13 -40 -14 -35 -42 -130 -80 -263 -17 -59 -62 -249 -70 -290 -2 -14
-13 -72 -24 -130 -12 -58 -24 -127 -28 -155 -3 -27 -7 -57 -9 -65 -5 -25 -18
-143 -21 -185 -1 -22 -3 -40 -4 -40 -3 0 -7 -46 -14 -167 -4 -65 -9 -124 -11
-131 -4 -8 -28 -13 -68 -15 -34 -1 -78 -4 -97 -7 -19 -2 -60 -7 -90 -10 -30
-3 -62 -8 -70 -10 -8 -2 -31 -7 -50 -10 -19 -3 -51 -10 -70 -15 -19 -5 -46
-11 -60 -14 -94 -17 -282 -97 -355 -151 -16 -12 -39 -20 -50 -18 -46 8 -167
-2 -194 -16 -9 -5 -20 -9 -26 -10 -22 -2 -81 -24 -95 -35 -8 -7 -28 -18 -45
-26 -57 -28 -160 -142 -199 -221 -20 -41 -38 -83 -41 -94 -2 -11 -9 -38 -14
-60 -6 -22 -9 -83 -6 -135 6 -154 59 -275 170 -383 71 -71 139 -111 242 -143
59 -18 89 -21 175 -18 119 4 128 5 128 14 0 3 10 6 23 7 42 3 167 76 225 132
64 62 122 140 122 165 0 9 5 16 10 16 6 0 10 8 10 18 0 37 102 182 128 182 5
0 15 7 22 15 17 21 112 54 173 60 72 8 116 9 121 4 5 -5 13 -64 20 -139 2 -25
7 -61 10 -80 3 -19 8 -53 12 -75 3 -22 8 -51 10 -65 2 -14 6 -41 8 -60 3 -19
5 -35 6 -35 1 0 17 -72 36 -160 19 -88 36 -164 37 -170 2 -5 6 -19 10 -30 3
-11 8 -31 11 -45 3 -14 12 -50 21 -80 9 -30 17 -62 19 -70 12 -47 99 -298 127
-365 5 -11 31 -76 59 -144 28 -68 55 -130 61 -138 6 -7 9 -13 5 -13 -6 0 147
-302 204 -403 18 -32 29 -62 24 -66 -5 -4 -38 -31 -74 -61 -87 -72 -220 -208
-293 -300 -32 -41 -65 -83 -73 -92 -7 -10 -11 -18 -8 -18 3 0 -6 -15 -19 -32
-45 -63 -140 -270 -153 -333 -2 -10 -18 -30 -35 -44 -116 -90 -200 -225 -226
-361 -9 -49 -4 -213 8 -240 1 -3 3 -9 4 -15 6 -29 42 -110 72 -160 10 -16 48
-59 84 -95 112 -111 261 -170 415 -164 158 6 278 59 390 169 108 107 163 239
168 405 1 58 -16 157 -35 192 -5 10 -12 35 -14 55 -2 21 -6 49 -9 62 -8 37 20
158 48 206 23 38 129 155 142 155 3 0 17 11 32 25 l27 26 80 -88 c103 -113
292 -302 375 -375 125 -109 141 -122 215 -178 33 -25 66 -49 73 -55 7 -5 22
-18 33 -27 10 -10 21 -18 24 -18 3 0 55 -33 117 -74 62 -40 149 -93 193 -116
44 -24 85 -47 91 -51 6 -5 14 -6 17 -2 4 3 7 1 7 -5 0 -7 4 -12 10 -12 5 0 45
-16 87 -36 69 -32 241 -102 268 -108 6 -2 17 -6 25 -9 13 -5 122 -38 143 -43
4 -1 9 -3 12 -4 3 -1 8 -3 13 -4 4 -1 41 -10 82 -19 137 -33 154 -36 162 -31
4 3 8 2 8 -3 0 -4 12 -9 28 -9 24 -1 57 -5 152 -19 14 -2 59 -7 100 -10 l75
-7 0 2571 0 2571 -30 1 c-16 1 -41 2 -55 4 -14 2 -52 6 -85 9 -75 9 -104 12
-155 21 -22 4 -50 8 -63 10 -12 2 -33 6 -47 10 -14 4 -34 8 -45 9 -11 2 -31 6
-45 9 -14 3 -65 16 -115 28 -49 12 -96 26 -102 31 -7 6 -13 8 -13 4 0 -11
-326 108 -420 155 -152 74 -241 120 -313 163 -48 28 -96 55 -107 61 -11 5 -20
13 -20 17 0 5 -5 8 -11 8 -17 0 -260 174 -267 192 -2 4 -10 8 -17 8 -7 0 -15
3 -17 8 -1 4 -28 27 -58 52 -160 130 -386 360 -520 530 -28 36 -60 76 -71 90
-34 43 -206 302 -238 360 -17 30 -49 90 -72 132 -26 49 -49 80 -62 84 -62 19
-227 159 -227 192 0 6 -4 12 -10 12 -5 0 -9 3 -8 8 1 4 -5 20 -12 35 -11 22
-11 33 -2 47 6 11 14 33 17 51 3 18 8 36 11 41 14 22 22 185 11 228 -2 8 -7
31 -11 50 -5 19 -24 69 -44 110 -66 136 -198 248 -352 297 -64 20 -213 25
-286 8z"/>
<path d="M9255 8976 c-22 -7 -44 -14 -50 -15 -5 -2 -20 -7 -33 -12 -13 -5 -26
-9 -30 -9 -10 0 -113 -70 -148 -100 -52 -45 -138 -169 -149 -217 -3 -10 -12
-43 -20 -73 -20 -69 -20 -227 -1 -258 4 -6 5 -15 2 -20 -2 -4 4 -25 14 -47 25
-52 25 -54 -7 -111 -26 -47 -155 -184 -173 -184 -5 0 -18 -10 -30 -22 -11 -12
-20 -18 -20 -14 0 19 -52 -46 -81 -104 -19 -36 -37 -66 -41 -68 -5 -2 -8 -8
-8 -12 0 -5 -14 -33 -32 -62 -17 -29 -36 -62 -42 -73 -22 -39 -71 -110 -78
-113 -5 -2 -8 -10 -8 -17 0 -7 -3 -15 -7 -17 -5 -1 -24 -25 -43 -53 -40 -58
-34 -50 -105 -140 -117 -147 -391 -435 -415 -435 -6 0 -10 -7 -10 -15 0 -8 -4
-15 -8 -15 -7 0 -77 -55 -132 -103 -8 -8 -33 -27 -55 -43 -22 -16 -49 -37 -59
-46 -11 -10 -23 -18 -27 -18 -4 0 -14 -6 -22 -14 -22 -22 -213 -146 -225 -146
-6 0 -12 -4 -14 -9 -1 -4 -39 -28 -83 -51 -44 -24 -82 -47 -85 -50 -3 -4 -17
-10 -32 -13 -15 -4 -33 -14 -42 -22 -8 -8 -19 -15 -24 -15 -4 0 -35 -13 -68
-29 -103 -50 -370 -151 -439 -167 -5 -1 -44 -12 -85 -24 -60 -17 -129 -36
-147 -40 -2 0 -4 0 -5 -1 -2 0 -14 -2 -28 -4 -44 -8 -55 -10 -66 -17 -5 -4
-19 -5 -30 -4 -10 2 -23 1 -29 -2 -5 -3 -16 -7 -25 -8 -26 -2 -123 -15 -165
-21 -57 -8 -93 -11 -147 -14 -27 -1 -48 -5 -49 -8 -1 -8 -1 -5077 0 -5114 l1
-29 63 7 c65 6 103 10 177 21 25 3 56 8 70 10 14 1 36 5 50 8 14 3 37 8 53 11
15 3 39 7 55 11 48 9 145 35 217 57 39 12 72 22 75 22 7 1 101 36 125 46 19 8
74 30 85 34 38 13 271 126 340 165 131 75 420 273 487 334 6 6 30 27 53 46 23
19 65 55 93 80 58 51 327 316 327 323 0 2 26 32 58 66 l57 61 40 -33 c69 -56
175 -167 160 -167 -3 0 1 -10 9 -22 18 -29 37 -101 41 -155 3 -36 -9 -105 -30
-173 -26 -86 -35 -208 -20 -270 3 -14 8 -35 11 -47 10 -51 72 -183 86 -183 4
0 8 -6 8 -13 0 -20 116 -124 177 -159 32 -18 60 -32 63 -31 3 1 11 -3 18 -9 6
-6 12 -7 12 -3 0 4 7 2 15 -5 8 -7 15 -9 15 -6 0 4 10 1 22 -5 33 -18 199 -20
265 -3 32 8 64 16 71 16 6 1 12 6 12 11 0 6 3 8 6 4 12 -12 146 73 189 120 68
73 94 112 124 182 36 85 43 126 43 249 0 50 -4 98 -10 105 -6 6 -10 15 -10 20
-1 84 -88 213 -215 319 -15 12 -29 30 -31 38 -15 87 -138 338 -198 404 -10 11
-18 26 -18 33 0 7 -4 13 -8 13 -5 0 -22 19 -39 43 -51 71 -192 208 -337 330
-28 23 -29 26 -15 48 9 13 37 65 64 114 26 50 61 114 76 143 16 28 26 52 23
52 -3 0 4 13 15 29 12 16 21 32 21 36 0 4 16 41 35 82 19 41 35 76 35 79 0 2
11 28 25 58 14 30 25 62 25 70 0 9 5 16 10 16 6 0 10 6 10 13 0 6 19 62 41
122 22 61 43 119 45 130 2 11 8 29 13 40 14 29 71 229 71 249 0 9 5 16 11 16
5 0 7 5 4 10 -3 5 -3 16 1 22 5 7 9 19 9 28 1 8 14 65 28 125 15 61 29 126 31
145 3 19 8 46 11 60 3 14 8 41 11 60 3 19 7 42 9 50 2 8 7 35 10 60 3 25 10
77 15 115 5 39 12 92 15 119 3 27 8 53 10 57 5 7 78 5 146 -5 35 -5 120 -35
129 -46 3 -3 17 -11 33 -17 15 -7 27 -17 27 -23 0 -5 6 -10 13 -10 10 0 101
-131 102 -149 2 -19 18 -51 26 -51 5 0 9 -9 9 -20 0 -11 4 -20 8 -20 4 0 16
-14 26 -31 24 -40 113 -126 149 -141 15 -7 27 -16 27 -19 0 -3 18 -12 40 -19
22 -7 40 -16 40 -20 0 -4 6 -7 13 -7 6 -1 39 -7 72 -15 67 -16 210 -15 255 2
3 1 9 2 13 1 14 -2 111 42 164 75 29 18 71 54 95 80 24 26 50 54 59 63 25 28
77 142 93 205 21 83 15 224 -13 301 -11 33 -22 65 -24 70 -9 40 -147 214 -170
215 -4 0 -17 9 -29 20 -11 10 -36 26 -54 35 -19 8 -49 22 -67 30 -48 22 -164
42 -226 38 -30 -2 -57 1 -60 6 -10 16 -193 106 -261 129 -67 22 -144 43 -170
47 -28 5 -93 17 -114 21 -63 14 -156 25 -255 30 -41 2 -75 5 -77 7 -3 3 -16
186 -17 250 0 15 -3 27 -6 27 -3 0 -6 21 -7 48 -1 50 -11 147 -20 197 -9 53
-15 90 -29 190 -2 17 -8 44 -13 62 -6 17 -8 34 -5 37 3 3 2 11 -4 18 -5 7 -10
25 -11 40 -2 30 -71 314 -99 407 -9 31 -18 59 -19 64 -1 4 -3 9 -4 12 -3 5 -3
6 -15 50 -4 17 -12 36 -18 43 -5 6 -7 12 -4 12 3 0 -3 23 -13 52 l-18 52 57
34 c31 18 71 45 89 58 17 14 32 21 32 17 0 -4 4 -3 8 2 4 6 36 33 72 60 100
76 200 171 238 227 9 13 19 25 22 28 9 8 73 107 115 180 41 73 91 125 148 155
63 33 147 110 185 169 15 23 29 43 33 46 6 5 15 27 19 45 1 6 5 15 10 20 17
22 41 131 44 199 7 148 -48 300 -146 406 -53 58 -208 165 -208 144 0 -4 -9 1
-20 11 -11 10 -20 16 -20 12 0 -3 -22 1 -50 8 -62 16 -202 17 -255 1z"/>
</g>
</svg>
